<svg width="28" height="8" viewBox="0 0 28 8" fill="none" xmlns="http://www.w3.org/2000/svg">
<path d="M19.0239 7.76168C18.1877 7.76168 17.3514 7.6706 16.5152 7.48846C15.679 7.30632 14.9587 6.97515 14.3544 6.49495C13.7583 6.00648 13.4602 5.34 13.4602 4.49551C13.4602 3.79178 13.6713 3.19153 14.0936 2.69478C14.5158 2.18975 15.0581 1.81304 15.7204 1.56466C16.3828 1.30801 17.07 1.17968 17.782 1.17968C18.1214 1.17968 18.4567 1.21279 18.7879 1.27903C19.1936 0.964417 19.6862 0.682923 20.2657 0.434545C20.8453 0.177889 21.4869 0.0495605 22.1907 0.0495605C22.7785 0.0495605 23.3166 0.148912 23.8051 0.347614C24.2936 0.538036 24.6786 0.807112 24.9601 1.15484C25.2416 1.50257 25.3823 1.89583 25.3823 2.33463C25.3823 2.76515 25.2457 3.09632 24.9725 3.32814C24.6993 3.55996 24.3143 3.67587 23.8175 3.67587C23.4119 3.67587 23.0393 3.60964 22.6998 3.47717C22.3687 3.33642 21.934 3.12116 21.3959 2.83139C20.9653 2.59129 20.5886 2.39673 20.2657 2.2477C19.9511 2.09867 19.5868 1.97448 19.1729 1.87513C18.7589 1.7675 18.3077 1.71369 17.8192 1.71369C17.0575 1.71369 16.3538 1.84202 15.708 2.09867C15.0705 2.34705 14.5655 2.6865 14.1929 3.11702C13.8286 3.53926 13.6465 3.99048 13.6465 4.47068C13.6465 4.97571 13.8617 5.42693 14.2923 5.82433C14.7228 6.21346 15.3644 6.51979 16.2172 6.74333C17.07 6.96687 18.1007 7.07864 19.3095 7.07864C20.5514 7.07864 21.6608 6.95445 22.6377 6.70607C23.623 6.45769 24.513 6.09755 25.3078 5.62563C26.1026 5.15371 26.885 4.55347 27.655 3.8249L27.7667 3.91183C26.5331 5.17855 25.1671 6.13894 23.6685 6.793C22.17 7.43878 20.6217 7.76168 19.0239 7.76168ZM19.1977 1.36596C19.5951 1.47359 19.9553 1.61434 20.2782 1.7882C20.6011 1.95379 21.0067 2.18561 21.4952 2.48366C22.0085 2.80655 22.4349 3.04665 22.7744 3.20395C23.1138 3.35298 23.4698 3.42749 23.8424 3.42749C24.2481 3.42749 24.5751 3.33228 24.8235 3.14186C25.0718 2.94316 25.196 2.68236 25.196 2.35947C25.196 1.83788 24.9021 1.43633 24.3143 1.15484C23.7347 0.873345 23.0352 0.732598 22.2155 0.732598C21.2386 0.732598 20.2326 0.943719 19.1977 1.36596Z" fill="#DCD8D9"/>
<path d="M10.8665 7.6997C10.5685 7.6997 10.3325 7.61276 10.1586 7.4389C9.99305 7.26504 9.91025 7.02494 9.91025 6.71861C9.91025 6.39572 10.0179 6.04385 10.2331 5.663C10.4484 5.28216 10.7465 4.84336 11.1273 4.3466C9.07405 5.2656 7.08703 6.06455 5.16625 6.74344C3.25374 7.42234 1.83799 7.76179 0.918996 7.76179C0.620943 7.76179 0.393264 7.72039 0.235958 7.6376C0.0786528 7.55481 0 7.4389 0 7.28987C0 6.90903 0.43466 6.37502 1.30398 5.68784C2.18158 5.00066 3.20821 4.39628 4.38386 3.87469C5.56779 3.34481 6.60684 3.07988 7.50099 3.07988C8.04742 3.07988 8.53176 3.17923 8.954 3.37793C9.37624 3.57663 9.70741 3.82087 9.94751 4.11064L9.83574 4.18516C9.57908 3.9285 9.24377 3.71324 8.82981 3.53938C8.42413 3.35723 7.97291 3.26616 7.47616 3.26616C6.63995 3.26616 5.67542 3.50626 4.58256 3.98646C3.4897 4.45837 2.52931 4.99652 1.70138 5.60091C0.881739 6.19701 0.471917 6.63167 0.471917 6.90489C0.471917 6.97112 0.500894 7.01666 0.558849 7.0415C0.625083 7.06633 0.736853 7.07875 0.894158 7.07875C1.48198 7.07875 2.33475 6.94629 3.45244 6.68135C4.57842 6.41641 5.83687 6.05627 7.22778 5.60091C8.62697 5.13727 10.0055 4.61982 11.3633 4.04855C11.8517 3.42761 12.2036 2.95155 12.4189 2.62038C12.6424 2.28921 12.7542 1.99116 12.7542 1.72622C12.7542 1.03077 11.7772 0.683038 9.82332 0.683038C8.3579 0.683038 6.84279 0.856902 5.27802 1.20463C3.72152 1.55236 2.34303 2.01186 1.14254 2.58312L1.09286 2.45893C2.44238 1.78004 3.82501 1.20049 5.24076 0.720294C6.65651 0.240098 8.12194 0 9.63704 0C10.7216 0 11.5413 0.140747 12.096 0.422241C12.659 0.703735 12.9405 1.08458 12.9405 1.56478C12.9405 1.87939 12.8328 2.22298 12.6176 2.59554C12.4023 2.95983 12.0918 3.39863 11.6862 3.91194C12.5141 3.56421 13.2965 3.20821 14.0333 2.84392L14.0954 2.95569C13.6069 3.20407 12.7293 3.61803 11.4626 4.19758C11.0238 4.74401 10.6926 5.18695 10.4691 5.52639C10.2538 5.86584 10.1462 6.16804 10.1462 6.43297C10.1462 6.61512 10.2042 6.74758 10.3201 6.83038C10.4443 6.91317 10.6264 6.95456 10.8665 6.95456C11.3798 6.95456 11.8931 6.78484 12.4064 6.44539C12.928 6.10594 13.371 5.65472 13.7353 5.09173L13.7608 5.22034C13.5207 5.68398 13.3254 6.03557 12.9777 6.43297C12.63 6.8221 12.2698 7.13257 11.8973 7.36439C11.5247 7.58793 11.1811 7.6997 10.8665 7.6997Z" fill="#DCD8D9"/>
</svg>
