<svg width="75" height="43" viewBox="0 0 75 43" fill="none" xmlns="http://www.w3.org/2000/svg">
    <path d="M52.0101 19.4992C49.9094 19.4992 47.8087 19.2705 45.708 18.8129C43.6073 18.3553 41.7978 17.5233 40.2795 16.317C38.782 15.0899 38.0332 13.4155 38.0332 11.2941C38.0332 9.52614 38.5636 8.01821 39.6243 6.77027C40.6851 5.50154 42.0474 4.55518 43.7113 3.93121C45.3752 3.28645 47.1016 2.96406 48.8903 2.96406C49.743 2.96406 50.5854 3.04726 51.4173 3.21365C52.4365 2.42329 53.674 1.71612 55.13 1.09215C56.5859 0.447384 58.1978 0.125 59.9657 0.125C61.4425 0.125 62.7944 0.374588 64.0215 0.873764C65.2487 1.35214 66.2158 2.02811 66.923 2.90166C67.6302 3.77522 67.9837 4.76317 67.9837 5.86552C67.9837 6.94707 67.6406 7.77902 66.9542 8.3614C66.2678 8.94377 65.3007 9.23495 64.0527 9.23495C63.0336 9.23495 62.0976 9.06856 61.2449 8.73578C60.4129 8.3822 59.321 7.84142 57.969 7.11346C56.8875 6.51029 55.9411 6.02151 55.13 5.64713C54.3396 5.27275 53.4245 4.96076 52.3845 4.71118C51.3446 4.44079 50.211 4.3056 48.9839 4.3056C47.0704 4.3056 45.3024 4.62798 43.6801 5.27275C42.0786 5.89672 40.8099 6.74948 39.8739 7.83102C38.9588 8.89177 38.5012 10.0253 38.5012 11.2317C38.5012 12.5004 39.042 13.6339 40.1235 14.6323C41.205 15.6098 42.817 16.3794 44.9593 16.941C47.1016 17.5025 49.691 17.7833 52.7277 17.7833C55.8475 17.7833 58.6346 17.4713 61.0889 16.8474C63.564 16.2234 65.7998 15.3187 67.7965 14.1331C69.7932 12.9476 71.7588 11.4396 73.6931 9.60934L73.9738 9.82772C70.8748 13.01 67.443 15.4226 63.6783 17.0658C59.9137 18.6881 56.0243 19.4992 52.0101 19.4992ZM52.4469 3.43204C53.4452 3.70243 54.35 4.05601 55.1612 4.49279C55.9723 4.90877 56.9915 5.49114 58.2186 6.2399C59.5082 7.05106 60.5793 7.65423 61.4321 8.04941C62.2848 8.42379 63.1792 8.61098 64.1151 8.61098C65.1343 8.61098 65.9558 8.3718 66.5798 7.89342C67.2038 7.39424 67.5158 6.73908 67.5158 5.92792C67.5158 4.61758 66.7774 3.60883 65.3007 2.90166C63.8447 2.1945 62.0872 1.84092 60.0281 1.84092C57.5738 1.84092 55.0468 2.37129 52.4469 3.43204Z" fill="black"/>
    <path d="M31.5174 19.3431C30.7687 19.3431 30.1759 19.1247 29.7391 18.6879C29.3231 18.2511 29.1151 17.6479 29.1151 16.8784C29.1151 16.0672 29.3855 15.1833 29.9263 14.2265C30.4671 13.2698 31.2158 12.1674 32.1726 10.9195C27.0144 13.2282 22.0227 15.2353 17.1973 16.9408C12.3928 18.6463 8.83612 19.499 6.52744 19.499C5.77867 19.499 5.2067 19.3951 4.81152 19.1871C4.41634 18.9791 4.21875 18.6879 4.21875 18.3135C4.21875 17.3568 5.3107 16.0152 7.49459 14.2889C9.69928 12.5626 12.2784 11.0443 15.2318 9.73392C18.2061 8.40279 20.8163 7.73722 23.0626 7.73722C24.4354 7.73722 25.6521 7.98681 26.7129 8.48599C27.7736 8.98516 28.6056 9.59873 29.2087 10.3267L28.9279 10.5139C28.2832 9.86912 27.4408 9.32834 26.4009 8.89157C25.3817 8.43399 24.2482 8.2052 23.0002 8.2052C20.8995 8.2052 18.4765 8.80837 15.731 10.0147C12.9855 11.2003 10.5728 12.5522 8.49294 14.0705C6.43384 15.568 5.40429 16.66 5.40429 17.3464C5.40429 17.5127 5.47709 17.6271 5.62268 17.6895C5.78907 17.7519 6.06986 17.7831 6.46504 17.7831C7.94177 17.7831 10.0841 17.4503 12.8919 16.7848C15.7206 16.1192 18.882 15.2145 22.3763 14.0705C25.8913 12.9058 29.3543 11.6058 32.7654 10.1707C33.9925 8.61078 34.8764 7.41484 35.4172 6.58288C35.9788 5.75092 36.2596 5.00216 36.2596 4.33659C36.2596 2.58947 33.8053 1.71592 28.8967 1.71592C25.2153 1.71592 21.4091 2.1527 17.4781 3.02625C13.5679 3.89981 10.1049 5.05415 7.08901 6.48928L6.96422 6.1773C10.3545 4.47178 13.8279 3.01585 17.3845 1.80951C20.9411 0.60317 24.6226 0 28.4288 0C31.1534 0 33.2125 0.353583 34.6061 1.06075C36.0204 1.76791 36.7276 2.72467 36.7276 3.93101C36.7276 4.72137 36.4572 5.58453 35.9164 6.52048C35.3756 7.43564 34.5957 8.53798 33.5765 9.82752C35.6564 8.95396 37.6219 8.05961 39.473 7.14445L39.629 7.42524C38.4019 8.04921 36.1972 9.08916 33.0149 10.5451C31.9126 11.9178 31.0806 13.0306 30.5191 13.8833C29.9783 14.7361 29.7079 15.4952 29.7079 16.1608C29.7079 16.6184 29.8535 16.9512 30.1447 17.1592C30.4567 17.3672 30.9142 17.4711 31.5174 17.4711C32.807 17.4711 34.0965 17.0448 35.386 16.192C36.6964 15.3393 37.8091 14.2057 38.7243 12.7914L38.7883 13.1145C38.1851 14.2792 37.6947 15.1625 36.8212 16.1608C35.9476 17.1384 35.0428 17.9183 34.1069 18.5007C33.1709 19.0623 32.3078 19.3431 31.5174 19.3431Z" fill="black"/>
    <path opacity="0.95" d="M57.1674 42.4358C49.8878 42.4358 44.8544 41.5415 42.0674 39.7527C39.3011 37.964 37.918 35.6033 37.918 32.6707H54.6092V33.669C54.6092 34.2098 54.6716 34.6154 54.7963 34.8858C54.9211 35.1354 55.1811 35.2602 55.5763 35.2602C55.9091 35.2602 56.1379 35.1354 56.2627 34.8858C56.3875 34.6362 56.4499 34.1994 56.4499 33.5754C56.4499 32.7643 56.3771 32.2027 56.2315 31.8907C56.1067 31.5787 55.7843 31.4228 55.2643 31.4228H38.074V20.1289H74.2642V28.7709H54.6092V30.0188H60.6305C64.0207 30.0188 66.6622 30.1332 68.5549 30.362C70.4476 30.5908 71.8931 31.09 72.8915 31.8595C73.9106 32.6083 74.4202 33.7522 74.4202 35.2914C74.4202 37.912 72.8811 39.7631 69.8028 40.8447C66.7454 41.9054 62.5336 42.4358 57.1674 42.4358Z" fill="black"/>
    <path opacity="0.95" d="M0.628649 39.6291C0.628649 37.258 1.17982 35.4901 2.28217 34.3254C3.40531 33.1399 5.01723 32.3599 7.11793 31.9855C9.21863 31.6111 12.1201 31.4239 15.8223 31.4239C16.7583 31.4239 17.4238 31.3823 17.819 31.2991C18.235 31.2159 18.5054 31.0704 18.6302 30.8624C18.7758 30.6336 18.8486 30.2696 18.8486 29.7704C18.8486 29.2296 18.7862 28.8345 18.6614 28.5849C18.5574 28.3145 18.3702 28.1793 18.0998 28.1793C17.559 28.1793 17.2886 28.6681 17.2886 29.6456V30.176H0.472656C0.472656 27.1185 1.87659 24.6019 4.68445 22.626C7.49231 20.6501 12.3905 19.6621 19.3789 19.6621C23.2475 19.6621 26.4506 19.8493 28.9881 20.2237C31.5463 20.5981 33.543 21.2948 34.9782 22.314C36.4133 23.3331 37.1309 24.7891 37.1309 26.6818C37.1309 29.2608 35.9869 31.1743 33.699 32.4223C31.4111 33.6702 28.5201 34.2942 25.0259 34.2942C23.7155 34.2942 22.3636 34.2422 20.9701 34.1382C19.5973 34.0134 18.4742 33.8782 17.6006 33.7326L17.4134 34.8558C18.183 35.0222 19.2645 35.1678 20.6581 35.2925C22.0724 35.4173 23.5491 35.4797 25.0883 35.4797C27.085 35.4797 28.8841 35.2925 30.4856 34.9182C32.1079 34.5438 33.4494 34.0758 34.5102 33.5142C35.5709 32.9527 36.3405 32.3807 36.8189 31.7983V41.969H0.628649V39.6291Z" fill="black"/>
</svg>
